<svg width="455" height="422" viewBox="0 0 455 422" fill="none" xmlns="http://www.w3.org/2000/svg">
<g opacity="0.7">
<path d="M347.257 56.7316C297.564 95.5221 229.009 67.4307 206.242 40.252C138.904 -39.9149 396.949 17.9412 347.257 56.7316Z" fill="url(#paint0_radial_17_1131)"/>
</g>
<g opacity="0.7">
<path d="M424.381 302.506C391.777 358.385 327.532 406.201 256.442 418.37C244.982 420.348 233.319 421.362 221.555 421.362C218.767 421.362 216.029 421.311 213.24 421.159C165.931 419.182 117.861 399.812 75.7744 355.697C10.7181 287.548 -8.6011 220.869 3.31491 163.52C6.76295 146.837 12.8984 130.915 21.265 116.008C94.8908 -15.0686 179.216 66.8224 282.2 81.1723C353.24 91.06 433.863 119.304 451.104 183.65C459.369 214.378 453.081 253.371 424.432 302.557L424.381 302.506Z" fill="url(#paint1_radial_17_1131)"/>
</g>
<defs>
<radialGradient id="paint0_radial_17_1131" cx="0" cy="0" r="1" gradientUnits="userSpaceOnUse" gradientTransform="translate(274.29 37.9195) scale(62.1661 62.1661)">
<stop stop-color="#A3D6FF"/>
<stop offset="1" stop-color="#E1F1FF"/>
</radialGradient>
<radialGradient id="paint1_radial_17_1131" cx="0" cy="0" r="1" gradientUnits="userSpaceOnUse" gradientTransform="translate(227.235 232.075) scale(209.164 209.164)">
<stop stop-color="#A3D6FF"/>
<stop offset="1" stop-color="#E1F1FF"/>
</radialGradient>
</defs>
</svg>
